<?xml version="1.0" encoding="UTF-8" standalone="no"?>
<svg width="30px" height="38px" viewBox="0 0 30 38" version="1.1" xmlns="http://www.w3.org/2000/svg" xmlns:xlink="http://www.w3.org/1999/xlink">
    <!-- Generator: Sketch 50.2 (55047) - http://www.bohemiancoding.com/sketch -->
    <title>trash@sndy</title>
    <desc>Created with Sketch.</desc>
    <defs></defs>
    <g id="Page-1" stroke="none" stroke-width="1" fill="none" fill-rule="evenodd">
        <g id="trash" fill-rule="nonzero">
            <path d="M25,6 L19,0 L11,0 L5,6 L2,6 L2,34 C2,36.2 3.8,38 6,38 L24,38 C26.2,38 28,36.2 28,34 L28,6 L25,6 Z" id="Shape" fill="#DF4344"></path>
            <path d="M15.5,33 L14.5,33 C13.7,33 13,32.3 13,31.5 L13,12.5 C13,11.7 13.7,11 14.5,11 L15.5,11 C16.3,11 17,11.7 17,12.5 L17,31.5 C17,32.3 16.3,33 15.5,33 Z M22.5,33 C21.7,33 21,32.3 21,31.5 L21,12.5 C21,11.7 21.7,11 22.5,11 C23.3,11 24,11.7 24,12.5 L24,31.5 C24,32.3 23.3,33 22.5,33 Z M7.5,33 C6.7,33 6,32.3 6,31.5 L6,12.5 C6,11.7 6.7,11 7.5,11 C8.3,11 9,11.7 9,12.5 L9,31.5 C9,32.3 8.3,33 7.5,33 Z" id="Shape" fill="#A52728"></path>
            <path d="M2,2 L28,2 C29.1,2 30,2.9 30,4 L30,6 L0,6 L0,4 C0,2.9 0.9,2 2,2 Z" id="Shape" fill="#FF6163"></path>
        </g>
    </g>
</svg>